<?xml version="1.0" encoding="UTF-8"?>
<svg width="20px" height="22px" viewBox="0 0 20 22" version="1.1" xmlns="http://www.w3.org/2000/svg" xmlns:xlink="http://www.w3.org/1999/xlink">
    <title>edit-3</title>
    <defs>
        <filter id="filter-1">
            <feColorMatrix in="SourceGraphic" type="matrix" values="0 0 0 0 0.305882 0 0 0 0 0.235294 0 0 0 0 0.764706 0 0 0 1.000000 0"></feColorMatrix>
        </filter>
        <path d="M14,3.41421356 L4,13.4142136 L4,16 L6.58578644,16 L16.5857864,6 L14,3.41421356 Z M21,21 C21.5522847,21 22,21.4477153 22,22 C22,22.5522847 21.5522847,23 21,23 L21,23 L3,23 C2.44771525,23 2,22.5522847 2,22 C2,21.4477153 2.44771525,21 3,21 L3,21 Z M14.7071068,1.29289322 L18.7071068,5.29289322 C19.0976311,5.68341751 19.0976311,6.31658249 18.7071068,6.70710678 L7.70710678,17.7071068 C7.5195704,17.8946432 7.26521649,18 7,18 L3,18 C2.44771525,18 2,17.5522847 2,17 L2,13 C2,12.7347835 2.10535684,12.4804296 2.29289322,12.2928932 L13.2928932,1.29289322 C13.6834175,0.902368927 14.3165825,0.902368927 14.7071068,1.29289322 Z" id="path-2"></path>
    </defs>
    <g id="logo" stroke="none" stroke-width="1" fill="none" fill-rule="evenodd">
        <g id="Artboard" transform="translate(-35.000000, -29.000000)">
            <g id="edit-3" transform="translate(33.000000, 28.000000)" filter="url(#filter-1)">
                <g>
                    <mask id="mask-3" fill="white">
                        <use xlink:href="#path-2"></use>
                    </mask>
                    <use id="Combined-Shape" fill="#000000" fill-rule="nonzero" xlink:href="#path-2"></use>
                    <g id="Group" mask="url(#mask-3)" fill="#000000">
                        <g id="COLOR/-black">
                            <rect id="Rectangle" x="0" y="0" width="24" height="24"></rect>
                        </g>
                    </g>
                </g>
            </g>
        </g>
    </g>
</svg>