<svg width="110" height="64" viewBox="0 0 110 64" fill="none" xmlns="http://www.w3.org/2000/svg">
<path fill-rule="evenodd" clip-rule="evenodd" d="M50.1355 0C51.7473 0 53.054 1.29199 53.054 2.88574V61.1143C53.054 62.708 51.7473 64 50.1355 64C48.5236 64 47.2169 62.708 47.2169 61.1143V2.88574C47.2169 1.29199 48.5236 0 50.1355 0ZM59.5788 0C61.1907 0 62.4974 1.29199 62.4974 2.88574V61.1143C62.4974 62.708 61.1907 64 59.5788 64C57.9669 64 56.6602 62.708 56.6602 61.1143V2.88574C56.6602 1.29199 57.9669 0 59.5788 0ZM21.8053 12.0869C23.4172 12.0869 24.7239 13.3789 24.7239 14.9726V48.7554C24.7239 50.3492 23.4172 51.6412 21.8053 51.6412C20.1934 51.6412 18.8867 50.3492 18.8867 48.7554V14.9726C18.8867 13.3789 20.1934 12.0869 21.8053 12.0869ZM40.6921 12.0869C42.304 12.0869 43.6107 13.3789 43.6107 14.9726V48.7554C43.6107 50.3492 42.304 51.6412 40.6921 51.6412C39.0802 51.6412 37.7735 50.3492 37.7735 48.7554V14.9726C37.7735 13.3789 39.0802 12.0869 40.6921 12.0869ZM87.909 12.0869C89.5208 12.0869 90.8275 13.3789 90.8275 14.9726V48.7554C90.8275 50.3492 89.5208 51.6412 87.909 51.6412C86.2971 51.6412 84.9904 50.3492 84.9904 48.7554V14.9726C84.9904 13.3789 86.2971 12.0869 87.909 12.0869ZM69.0222 12.0869C70.6341 12.0869 71.9408 13.3789 71.9408 14.9726V48.7554C71.9408 50.3492 70.6341 51.6412 69.0222 51.6412C67.4103 51.6412 66.1036 50.3492 66.1036 48.7554V14.9726C66.1036 13.3789 67.4103 12.0869 69.0222 12.0869ZM12.362 20.1448C13.9738 20.1448 15.2805 21.4368 15.2805 23.0305V41.7047C15.2805 43.2985 13.9738 44.5905 12.362 44.5905C10.7501 44.5905 9.44337 43.2985 9.44337 41.7047V23.0305C9.44337 21.4368 10.7501 20.1448 12.362 20.1448ZM97.3523 20.1448C98.9642 20.1448 100.271 21.4368 100.271 23.0305V41.7047C100.271 43.2985 98.9642 44.5905 97.3523 44.5905C95.7404 44.5905 94.4337 43.2985 94.4337 41.7047V23.0305C94.4337 21.4368 95.7404 20.1448 97.3523 20.1448ZM2.91858 24.1737C4.53047 24.1737 5.83717 25.4657 5.83717 27.0595V36.3966C5.83717 37.9904 4.53047 39.2823 2.91858 39.2823C1.30669 39.2823 0 37.9904 0 36.3966V27.0595C0 25.4657 1.30669 24.1737 2.91858 24.1737ZM31.2487 24.1737C32.8606 24.1737 34.1673 25.4657 34.1673 27.0595V36.3966C34.1673 37.9904 32.8606 39.2823 31.2487 39.2823C29.6368 39.2823 28.3301 37.9904 28.3301 36.3966V27.0595C28.3301 25.4657 29.6368 24.1737 31.2487 24.1737ZM106.796 24.1737C108.408 24.1737 109.714 25.4657 109.714 27.0595V36.3966C109.714 37.9904 108.408 39.2823 106.796 39.2823C105.184 39.2823 103.877 37.9904 103.877 36.3966V27.0595C103.877 25.4657 105.184 24.1737 106.796 24.1737ZM78.4656 24.1737C80.0775 24.1737 81.3842 25.4657 81.3842 27.0595V36.3966C81.3842 37.9904 80.0775 39.2823 78.4656 39.2823C76.8537 39.2823 75.547 37.9904 75.547 36.3966V27.0595C75.547 25.4657 76.8537 24.1737 78.4656 24.1737Z" fill="url(#paint0_linear)"/>
<defs>
<linearGradient id="paint0_linear" x1="32.6136" y1="13.3919" x2="53.5267" y2="71.2231" gradientUnits="userSpaceOnUse">
<stop offset="0.385417" stop-color="#4E3CC3"/>
<stop offset="1" stop-color="#C37331"/>
</linearGradient>
</defs>
</svg>
